<svg width="20" height="20" viewBox="0 0 20 20" fill="none" xmlns="http://www.w3.org/2000/svg">
  <circle cx="10" cy="10" r="10" fill="#00AEEF"></circle>
  <mask id="path-2-inside-1_780_565" fill="white">
    <path d="M8.29237 12.954L15.646 5.59961L16.778 6.73081L8.29237 15.2164L3.20117 10.1252L4.33237 8.99401L8.29237 12.954Z"></path>
  </mask>
  <path d="M8.29237 12.954L15.646 5.59961L16.778 6.73081L8.29237 15.2164L3.20117 10.1252L4.33237 8.99401L8.29237 12.954Z" fill="#00AEEF"></path>
  <path d="M8.29237 12.954L6.17105 15.0753C6.73368 15.638 7.49678 15.954 8.29245 15.954C9.08813 15.954 9.85121 15.6379 10.4138 15.0752L8.29237 12.954ZM15.646 5.59961L17.7665 3.47754C16.5948 2.30663 14.6958 2.30702 13.5245 3.4784L15.646 5.59961ZM16.778 6.73081L18.8993 8.85213C19.462 8.28939 19.7781 7.52611 19.778 6.73028C19.7778 5.93445 19.4615 5.17128 18.8985 4.60874L16.778 6.73081ZM8.29237 15.2164L6.17105 17.3377C7.34262 18.5093 9.24212 18.5093 10.4137 17.3377L8.29237 15.2164ZM3.20117 10.1252L1.07985 8.00389C0.517243 8.5665 0.201172 9.32956 0.201172 10.1252C0.201172 10.9209 0.517242 11.6839 1.07985 12.2465L3.20117 10.1252ZM4.33237 8.99401L6.45369 6.87269C5.28212 5.70112 3.38263 5.70112 2.21105 6.87269L4.33237 8.99401ZM10.4138 15.0752L17.7674 7.72081L13.5245 3.4784L6.17094 10.8328L10.4138 15.0752ZM13.5254 7.72168L14.6574 8.85288L18.8985 4.60874L17.7665 3.47754L13.5254 7.72168ZM14.6567 4.60949L6.17105 13.0951L10.4137 17.3377L18.8993 8.85213L14.6567 4.60949ZM10.4137 13.0951L5.32249 8.00389L1.07985 12.2465L6.17105 17.3377L10.4137 13.0951ZM5.32249 12.2465L6.45369 11.1153L2.21105 6.87269L1.07985 8.00389L5.32249 12.2465ZM2.21105 11.1153L6.17105 15.0753L10.4137 10.8327L6.45369 6.87269L2.21105 11.1153Z" fill="white" mask="url(#path-2-inside-1_780_565)"></path>
</svg>